<?xml version="1.0" standalone="no"?>
<!DOCTYPE svg PUBLIC "-//W3C//DTD SVG 20010904//EN"
 "http://www.w3.org/TR/2001/REC-SVG-20010904/DTD/svg10.dtd">
<svg version="1.0" xmlns="http://www.w3.org/2000/svg"
 width="200.000000pt" height="150.000000pt" viewBox="0 0 200.000000 150.000000"
 preserveAspectRatio="xMidYMid meet">

<g transform="translate(0.000000,150.000000) scale(0.100000,-0.100000)"
fill="#000000" stroke="none">
<path d="M1020 1341 c-15 -9 -59 -18 -192 -41 -62 -11 -67 -11 -87 9 -25 25
-88 28 -129 7 -35 -18 -91 -88 -102 -127 -6 -19 -5 -49 2 -78 8 -38 6 -65 -12
-156 -12 -60 -29 -119 -36 -130 -25 -35 -35 -90 -23 -122 8 -21 7 -49 -6 -118
-9 -49 -21 -117 -26 -150 -6 -33 -19 -74 -30 -91 -28 -46 -26 -128 3 -148 28
-20 107 -21 151 -2 52 21 66 53 65 139 0 41 2 79 5 84 4 6 9 37 12 69 3 32 13
91 23 129 l17 70 60 13 c33 7 103 13 155 13 126 1 148 14 169 96 13 51 -4 104
-39 123 -21 11 -67 6 -100 -10 -14 -7 -184 -40 -207 -40 -6 0 -2 42 11 108
l22 107 34 7 c123 25 211 36 252 31 29 -3 60 -1 78 7 61 25 93 146 50 185 -22
20 -97 30 -120 16z"/>
<path d="M1420 1059 c-121 -48 -262 -154 -332 -249 -41 -55 -96 -156 -103
-187 -41 -186 -43 -221 -19 -302 19 -65 71 -124 122 -139 88 -27 211 -9 317
44 134 68 295 298 295 421 0 51 -16 82 -43 84 -39 3 -80 -1 -145 -15 -40 -9
-88 -16 -106 -16 -61 0 -111 -81 -87 -142 13 -34 47 -43 112 -31 27 6 49 7 49
2 0 -15 -79 -106 -120 -139 -49 -39 -133 -65 -161 -50 -52 29 -64 115 -30 227
27 90 72 161 143 230 61 58 158 118 180 111 6 -2 16 -19 22 -38 14 -44 49 -62
101 -55 62 9 85 37 85 104 0 101 -52 150 -165 157 -45 3 -74 -1 -115 -17z"/>
</g>
</svg>
